<svg width="58" height="50" viewBox="0 0 58 50" fill="none" xmlns="http://www.w3.org/2000/svg">
<path d="M46.9853 24.9337H50.1844C50.8326 24.9337 51.4251 24.5675 51.7149 23.9878V23.9878" stroke="#8AA3F2" stroke-width="0.945928"/>
<path d="M8.98633 24.9337H5.78719C5.13906 24.9337 4.54655 24.5675 4.25669 23.9878V23.9878" stroke="#8AA3F2" stroke-width="0.945928"/>
<path d="M40.1625 43.8003H47.2617V46.4504C47.2617 47.6651 47.2617 48.2725 47.0331 48.7398C46.8135 49.1888 46.4505 49.5519 46.0015 49.7715C45.5342 50 44.9268 50 43.7121 50C42.4974 50 41.8901 50 41.4227 49.7715C40.9737 49.5519 40.6107 49.1888 40.3911 48.7398C40.1625 48.2725 40.1625 47.6651 40.1625 46.4505V43.8003Z" fill="#9AB0F4"/>
<path d="M9.45898 43.8003H16.5581V46.4504C16.5581 47.6651 16.5581 48.2725 16.3296 48.7398C16.11 49.1888 15.7469 49.5519 15.2979 49.7715C14.8306 50 14.2233 50 13.0086 50C11.7939 50 11.1865 50 10.7192 49.7715C10.2702 49.5519 9.90715 49.1888 9.68755 48.7398C9.45898 48.2725 9.45898 47.6651 9.45898 46.4505V43.8003Z" fill="#9AB0F4"/>
<mask id="mask0" mask-type="alpha" maskUnits="userSpaceOnUse" x="0" y="7" width="55" height="38">
<path d="M10.929 14.7194L7.94448 22.6516C7.86332 22.8673 7.82274 22.9752 7.77873 23.0767C7.33431 24.1018 6.52407 24.9247 5.50596 25.3849C5.40514 25.4305 5.29793 25.4727 5.08351 25.5572C4.66518 25.722 4.45601 25.8045 4.27031 25.8932C2.37239 26.8001 1.10825 28.6569 0.960279 30.7552C0.945801 30.9605 0.945801 31.1853 0.945801 31.6349V35.3337C0.945801 39.5721 0.945801 41.6913 2.2625 43.008C3.5792 44.3247 5.6984 44.3247 9.9368 44.3247H46.009C50.2474 44.3247 52.3666 44.3247 53.6833 43.008C55 41.6913 55 39.5721 55 35.3337V31.5806C55 31.1349 55 30.912 54.9857 30.7081C54.8403 28.6322 53.602 26.7902 51.7345 25.872C51.5511 25.7818 51.3447 25.6977 50.9321 25.5294L50.932 25.5294L50.9317 25.5293C50.7307 25.4473 50.6301 25.4063 50.5351 25.3623C49.5793 24.9197 48.8092 24.1555 48.3593 23.2031C48.3145 23.1084 48.2728 23.0081 48.1892 22.8075L44.6989 14.4287C43.6522 11.916 43.1288 10.6597 42.0595 9.85208C40.9902 9.0445 39.6933 8.8913 37.0995 8.58491C34.2243 8.24527 30.7345 7.91566 27.9729 7.90833C25.1588 7.90086 21.6083 8.22408 18.6664 8.56386C15.9663 8.87572 14.6162 9.03165 13.5208 9.88701C12.4254 10.7424 11.9266 12.0681 10.929 14.7194Z" fill="#BFF0FC"/>
</mask>
<g mask="url(#mask0)">
<path d="M10.9615 14.8057L7.9948 22.6287C7.91617 22.8361 7.87685 22.9397 7.83444 23.0374C7.38691 24.0676 6.56995 24.8929 5.54438 25.3509C5.44718 25.3943 5.34392 25.4347 5.13739 25.5155C4.73341 25.6734 4.53142 25.7523 4.35193 25.837C2.43474 26.7409 1.15724 28.6119 1.01346 30.7266C1 30.9246 1 31.1415 1 31.5753V35.1277C1 39.3661 1 41.4853 2.3167 42.802C3.6334 44.1187 5.7526 44.1187 9.991 44.1187H46.009C50.2474 44.1187 52.3666 44.1187 53.6833 42.802C55 41.4853 55 39.3661 55 35.1277V31.521C55 31.0913 55 30.8765 54.9867 30.6799C54.8455 28.5873 53.5938 26.7308 51.7068 25.8154C51.5295 25.7294 51.3304 25.6489 50.9321 25.4878C50.7384 25.4095 50.6416 25.3703 50.55 25.3284C49.5872 24.8879 48.8108 24.1216 48.3576 23.1647C48.3145 23.0737 48.2741 22.9774 48.1933 22.785L48.1932 22.7848L44.7229 14.5194C43.6706 12.0129 43.1444 10.7597 42.0748 9.95547C41.0052 9.15124 39.7094 9.00008 37.1177 8.69777C34.1898 8.35623 30.6158 8.02393 27.7931 8.02393C25.0436 8.02393 21.5811 8.33923 18.6974 8.67125C16.0017 8.98161 14.6538 9.13679 13.5595 9.9887C12.4651 10.8406 11.9639 12.1623 10.9615 14.8057Z" fill="#8AA3F2"/>
<path d="M41.987 8.3641V7.43514L9.95492 6.48926L2.44739 27.7716H4.92953C7.81879 27.7716 10.3745 25.8982 11.244 23.1429L13.3488 16.4734C14.1944 13.7942 16.6387 11.9402 19.4467 11.8483L39.2421 11.2004C40.7724 11.1503 41.987 9.89523 41.987 8.3641Z" fill="#9AB0F4"/>
<rect x="-2.05737" y="24.4614" width="69.0693" height="27.4305" fill="#103AC1"/>
<path d="M8.06152 26.245H50.2135C51.1986 26.245 51.9971 25.4465 51.9971 24.4614H-0.0550537V41.9602C2.33792 41.9602 4.2778 40.0203 4.2778 37.6273V30.0288C4.2778 27.9391 5.97183 26.245 8.06152 26.245Z" fill="#9AB0F4"/>
</g>
<path d="M41.3394 38.4056H38.3923L38.3702 38.4056C36.8944 38.4003 35.6982 37.2102 35.6828 35.7368C35.6827 35.7429 35.6826 35.749 35.6826 35.7551C35.6826 35.757 35.6826 35.7156 35.6826 35.696L35.6826 35.6959V35.6861C35.6826 35.6861 35.6826 35.69 35.6826 35.696L35.6826 35.718C35.6827 35.7243 35.6827 35.7306 35.6828 35.7368C35.6931 34.9339 36.2471 34.0716 36.973 33.7274C36.9441 33.7403 36.9155 33.7532 36.8873 33.7661C36.8724 33.7728 36.8621 33.7775 36.8621 33.7775L36.8806 33.7691C36.8828 33.7681 36.885 33.7671 36.8873 33.7661C36.9263 33.7483 36.9968 33.7163 36.9951 33.7171C36.9877 33.7204 36.9804 33.7239 36.973 33.7274C37.7626 33.3731 38.7969 32.9672 39.7286 32.7865C40.5294 32.6312 41.6325 32.5693 42.614 32.5485C43.066 32.539 43.292 32.5342 43.5156 32.5873C44.1383 32.7352 44.6796 33.2651 44.8406 33.8845C44.8984 34.107 44.8984 34.3535 44.8984 34.8466C44.8984 35.6479 44.8984 36.0485 44.8139 36.378C44.5695 37.3318 43.8246 38.0767 42.8708 38.3211C42.5412 38.4056 42.1406 38.4056 41.3394 38.4056Z" fill="#FFEFD0"/>
<path d="M54.1625 24.6519H52.641L52.6296 24.6519C51.8677 24.6492 51.2501 24.0348 51.2422 23.2742C51.2422 23.2773 51.2421 23.2805 51.2421 23.2836C51.2421 23.2846 51.2421 23.2632 51.2421 23.2531L51.2421 23.253V23.248C51.2421 23.248 51.2421 23.25 51.2421 23.2531L51.2421 23.2645C51.2421 23.2677 51.2422 23.2709 51.2422 23.2742C51.2476 22.8596 51.5336 22.4145 51.9083 22.2368C51.8922 22.244 51.8763 22.2512 51.8606 22.2583C51.8202 22.2766 51.9211 22.2308 51.9197 22.2314C51.9159 22.2332 51.9121 22.235 51.9083 22.2368C52.3159 22.0539 52.8499 21.8443 53.3309 21.751C53.7443 21.6709 54.3138 21.6389 54.8205 21.6282C55.0539 21.6232 55.1705 21.6208 55.286 21.6482C55.6075 21.7245 55.8869 21.9981 55.97 22.3179C55.9999 22.4327 55.9999 22.56 55.9999 22.8146C55.9999 23.2282 55.9999 23.435 55.9563 23.6052C55.8301 24.0976 55.4455 24.4821 54.9531 24.6083C54.783 24.6519 54.5761 24.6519 54.1625 24.6519Z" fill="#103AC1"/>
<path d="M1.83743 24.6519H3.3589L3.37033 24.6519C4.13222 24.6492 4.74979 24.0348 4.75774 23.2742C4.75778 23.2773 4.7578 23.2805 4.75781 23.2836C4.75781 23.2846 4.75781 23.2632 4.75781 23.2531L4.75781 23.253V23.248C4.75781 23.248 4.75781 23.25 4.75781 23.2531L4.7578 23.2645C4.75779 23.2677 4.75777 23.2709 4.75774 23.2742C4.75238 22.8596 4.46638 22.4145 4.09164 22.2368C4.10774 22.244 4.12365 22.2512 4.13934 22.2583C4.17969 22.2766 4.07882 22.2308 4.08021 22.2314C4.08403 22.2332 4.08784 22.235 4.09164 22.2368C3.684 22.0539 3.15005 21.8443 2.66905 21.751C2.25559 21.6709 1.68614 21.6389 1.17939 21.6282C0.946059 21.6232 0.829391 21.6208 0.713936 21.6482C0.392483 21.7245 0.113031 21.9981 0.0299234 22.3179C7.34329e-05 22.4327 7.34329e-05 22.56 7.34329e-05 22.8146C7.34329e-05 23.2282 7.34329e-05 23.435 0.0436735 23.6052C0.169886 24.0976 0.554417 24.4821 1.04686 24.6083C1.21697 24.6519 1.42379 24.6519 1.83743 24.6519Z" fill="#103AC1"/>
<path d="M12.372 38.4056H15.3191L15.3412 38.4056C16.817 38.4003 18.0133 37.2102 18.0287 35.7368C18.0287 35.7429 18.0288 35.749 18.0288 35.7551C18.0288 35.757 18.0288 35.7156 18.0288 35.696L18.0288 35.6959V35.6861C18.0288 35.6861 18.0288 35.69 18.0288 35.696L18.0288 35.718C18.0288 35.7243 18.0287 35.7306 18.0287 35.7368C18.0183 34.9339 17.4643 34.0716 16.7384 33.7274C16.7673 33.7403 16.7959 33.7532 16.8242 33.7661C16.839 33.7728 16.8493 33.7775 16.8493 33.7775L16.8308 33.7691C16.8286 33.7681 16.8264 33.7671 16.8242 33.7661C16.7852 33.7483 16.7147 33.7163 16.7163 33.7171C16.7237 33.7204 16.7311 33.7239 16.7384 33.7274C15.9488 33.3731 14.9146 32.9672 13.9829 32.7865C13.182 32.6312 12.079 32.5693 11.0974 32.5485C10.6454 32.539 10.4194 32.5342 10.1958 32.5873C9.57314 32.7352 9.03184 33.2651 8.87086 33.8845C8.81304 34.107 8.81304 34.3535 8.81304 34.8466C8.81304 35.6479 8.81304 36.0485 8.89749 36.378C9.14196 37.3318 9.8868 38.0767 10.8407 38.3211C11.1702 38.4056 11.5708 38.4056 12.372 38.4056Z" fill="#FFEFD0"/>
<path d="M42.5 9.0237C41.7618 6.7599 40.2579 5.25201 38 4.51185C40.2579 3.77169 41.7618 2.2638 42.5 0C43.2382 2.2638 44.7421 3.77169 47 4.51185C44.7461 5.24808 43.2382 6.7599 42.5 9.0237Z" fill="#8AA3F2"/>
<path d="M55 15.0422C54.5079 13.533 53.5052 12.5277 52 12.0343C53.5052 11.5408 54.5079 10.5356 55 9.02637C55.4921 10.5356 56.4948 11.5408 58 12.0343C56.4974 12.5251 55.4921 13.533 55 15.0422Z" fill="#8AA3F2"/>
<path d="M12 6.01824C11.5079 4.50904 10.5052 3.50378 9 3.01034C10.5052 2.5169 11.5079 1.51164 12 0.00244141C12.4921 1.51164 13.4948 2.5169 15 3.01034C13.4974 3.50116 12.4921 4.50904 12 6.01824Z" fill="#8AA3F2"/>
<path d="M29 5.0159C28.6719 4.00977 28.0035 3.3396 27 3.01064C28.0035 2.68168 28.6719 2.0115 29 1.00537C29.3281 2.0115 29.9965 2.68168 31 3.01064C29.9983 3.33785 29.3281 4.00977 29 5.0159Z" fill="#8AA3F2"/>
<path d="M2 16.0447C1.6719 15.0386 1.00349 14.3684 0 14.0394C1.00349 13.7105 1.6719 13.0403 2 12.0342C2.3281 13.0403 2.99651 13.7105 4 14.0394C2.99826 14.3667 2.3281 15.0386 2 16.0447Z" fill="#8AA3F2"/>
</svg>
