<svg width="40" height="40" viewBox="0 0 40 40" fill="none" xmlns="http://www.w3.org/2000/svg">
<path d="M12.3945 32.7616C10.3612 26.5496 6.21888 22.4119 0 20.3808C6.21888 18.3497 10.3612 14.212 12.3945 8C14.4278 14.212 18.5701 18.3497 24.789 20.3808C18.5809 22.4011 14.4278 26.5496 12.3945 32.7616Z" fill="#22C8EF"/>
<path d="M29.8093 12.657C29.0984 10.4852 27.6502 9.03857 25.476 8.32849C27.6502 7.6184 29.0984 6.1718 29.8093 4C30.5202 6.1718 31.9684 7.6184 34.1426 8.32849C31.9722 9.03479 30.5202 10.4852 29.8093 12.657Z" fill="#22C8EF"/>
<path d="M32 37C30.8517 33.2369 28.5122 30.7304 25 29.5C28.5122 28.2696 30.8517 25.7631 32 22C33.1483 25.7631 35.4878 28.2696 39 29.5C35.4939 30.7238 33.1483 33.2369 32 37Z" fill="#22C8EF"/>
</svg>
