<svg width="40" height="40" viewBox="0 0 40 40" fill="none" xmlns="http://www.w3.org/2000/svg">
<path d="M15.3945 32.7616C13.3612 26.5496 9.21888 22.4119 3 20.3808C9.21888 18.3497 13.3612 14.212 15.3945 8C17.4278 14.212 21.5701 18.3497 27.789 20.3808C21.5809 22.4011 17.4278 26.5496 15.3945 32.7616Z" fill="#22C8EF"/>
<path d="M29.8093 12.657C29.0984 10.4852 27.6502 9.03857 25.476 8.32849C27.6502 7.6184 29.0984 6.1718 29.8093 4C30.5202 6.1718 31.9684 7.6184 34.1426 8.32849C31.9722 9.03479 30.5202 10.4852 29.8093 12.657Z" fill="#22C8EF"/>
<path d="M5.5 38C4.92583 36.2439 3.75611 35.0742 2 34.5C3.75611 33.9258 4.92583 32.7561 5.5 31C6.07417 32.7561 7.24389 33.9258 9 34.5C7.24695 35.0711 6.07417 36.2439 5.5 38Z" fill="#22C8EF"/>
<path d="M32 37C30.8517 33.2369 28.5122 30.7304 25 29.5C28.5122 28.2696 30.8517 25.7631 32 22C33.1483 25.7631 35.4878 28.2696 39 29.5C35.4939 30.7238 33.1483 33.2369 32 37Z" fill="#22C8EF"/>
</svg>
